<mxfile host="app.diagrams.net" modified="2024-07-05T01:48:28.968Z" agent="Mozilla/5.0 (Windows NT 10.0; Win64; x64) AppleWebKit/537.36 (KHTML, like Gecko) Chrome/126.0.0.0 Safari/537.36" etag="uIa29jNExTMMXMTpiqc5" version="24.6.4" type="github">
  <diagram name="페이지-1" id="2YHEiqQpz8gi7gzmrTqF">
    <mxGraphModel dx="1221" dy="725" grid="1" gridSize="10" guides="1" tooltips="1" connect="1" arrows="1" fold="1" page="1" pageScale="1" pageWidth="827" pageHeight="1169" math="0" shadow="0">
      <root>
        <mxCell id="0" />
        <mxCell id="1" parent="0" />
        <mxCell id="mjBgpRz0uOezvbLtq9Ir-1" value="&lt;font style=&quot;font-size: 30px;&quot;&gt;Header&lt;/font&gt;" style="rounded=0;whiteSpace=wrap;html=1;" vertex="1" parent="1">
          <mxGeometry y="120" width="240" height="110" as="geometry" />
        </mxCell>
        <mxCell id="mjBgpRz0uOezvbLtq9Ir-2" value="&lt;span style=&quot;font-size: 30px;&quot;&gt;Body&lt;/span&gt;" style="rounded=0;whiteSpace=wrap;html=1;" vertex="1" parent="1">
          <mxGeometry y="240" width="240" height="350" as="geometry" />
        </mxCell>
        <mxCell id="mjBgpRz0uOezvbLtq9Ir-3" value="&lt;font style=&quot;font-size: 30px;&quot;&gt;Footer&lt;/font&gt;" style="rounded=0;whiteSpace=wrap;html=1;" vertex="1" parent="1">
          <mxGeometry y="600" width="240" height="50" as="geometry" />
        </mxCell>
        <mxCell id="mjBgpRz0uOezvbLtq9Ir-4" value="&lt;font style=&quot;font-size: 18px;&quot;&gt;Home About Service Contact&lt;/font&gt;" style="rounded=0;whiteSpace=wrap;html=1;align=left;" vertex="1" parent="1">
          <mxGeometry y="200" width="240" height="30" as="geometry" />
        </mxCell>
        <mxCell id="mjBgpRz0uOezvbLtq9Ir-5" value="&lt;font style=&quot;font-size: 30px;&quot;&gt;Header&lt;/font&gt;" style="rounded=0;whiteSpace=wrap;html=1;" vertex="1" parent="1">
          <mxGeometry x="270" y="120" width="240" height="110" as="geometry" />
        </mxCell>
        <mxCell id="mjBgpRz0uOezvbLtq9Ir-6" value="&lt;span style=&quot;font-size: 30px;&quot;&gt;Body&lt;/span&gt;" style="rounded=0;whiteSpace=wrap;html=1;" vertex="1" parent="1">
          <mxGeometry x="270" y="240" width="240" height="350" as="geometry" />
        </mxCell>
        <mxCell id="mjBgpRz0uOezvbLtq9Ir-7" value="&lt;font style=&quot;font-size: 30px;&quot;&gt;Footer&lt;/font&gt;" style="rounded=0;whiteSpace=wrap;html=1;" vertex="1" parent="1">
          <mxGeometry x="270" y="600" width="240" height="50" as="geometry" />
        </mxCell>
        <mxCell id="mjBgpRz0uOezvbLtq9Ir-8" value="&lt;font style=&quot;font-size: 18px;&quot;&gt;Home About Service Contact&lt;/font&gt;" style="rounded=0;whiteSpace=wrap;html=1;align=left;" vertex="1" parent="1">
          <mxGeometry x="270" y="200" width="240" height="30" as="geometry" />
        </mxCell>
        <mxCell id="mjBgpRz0uOezvbLtq9Ir-9" value="&lt;span style=&quot;font-size: 18px;&quot;&gt;About&lt;/span&gt;" style="rounded=0;whiteSpace=wrap;html=1;align=left;" vertex="1" parent="1">
          <mxGeometry x="320" y="200" width="50" height="30" as="geometry" />
        </mxCell>
        <mxCell id="mjBgpRz0uOezvbLtq9Ir-10" value="&lt;font style=&quot;font-size: 20px;&quot;&gt;Overview&lt;/font&gt;&lt;div&gt;&lt;font style=&quot;font-size: 20px;&quot;&gt;Team&lt;/font&gt;&lt;/div&gt;&lt;div&gt;&lt;font style=&quot;font-size: 20px;&quot;&gt;Job&lt;/font&gt;&lt;/div&gt;" style="rounded=0;whiteSpace=wrap;html=1;align=left;" vertex="1" parent="1">
          <mxGeometry x="320" y="230" width="100" height="80" as="geometry" />
        </mxCell>
        <mxCell id="mjBgpRz0uOezvbLtq9Ir-11" value="" style="rounded=0;whiteSpace=wrap;html=1;" vertex="1" parent="1">
          <mxGeometry width="790" height="50" as="geometry" />
        </mxCell>
        <mxCell id="mjBgpRz0uOezvbLtq9Ir-12" value="" style="rounded=0;whiteSpace=wrap;html=1;" vertex="1" parent="1">
          <mxGeometry y="50" width="790" height="50" as="geometry" />
        </mxCell>
        <mxCell id="mjBgpRz0uOezvbLtq9Ir-13" value="작성자" style="rounded=0;whiteSpace=wrap;html=1;" vertex="1" parent="1">
          <mxGeometry width="110" height="50" as="geometry" />
        </mxCell>
        <mxCell id="mjBgpRz0uOezvbLtq9Ir-14" value="홍길동" style="rounded=0;whiteSpace=wrap;html=1;" vertex="1" parent="1">
          <mxGeometry x="110" width="110" height="50" as="geometry" />
        </mxCell>
        <mxCell id="mjBgpRz0uOezvbLtq9Ir-15" value="작성일" style="rounded=0;whiteSpace=wrap;html=1;" vertex="1" parent="1">
          <mxGeometry x="220" width="110" height="50" as="geometry" />
        </mxCell>
        <mxCell id="mjBgpRz0uOezvbLtq9Ir-16" value="2024-07-05" style="rounded=0;whiteSpace=wrap;html=1;" vertex="1" parent="1">
          <mxGeometry x="330" width="110" height="50" as="geometry" />
        </mxCell>
        <mxCell id="mjBgpRz0uOezvbLtq9Ir-18" value="문서번호" style="rounded=0;whiteSpace=wrap;html=1;" vertex="1" parent="1">
          <mxGeometry y="50" width="110" height="50" as="geometry" />
        </mxCell>
        <mxCell id="mjBgpRz0uOezvbLtq9Ir-19" value="ag-0001-95" style="rounded=0;whiteSpace=wrap;html=1;" vertex="1" parent="1">
          <mxGeometry x="110" y="50" width="110" height="50" as="geometry" />
        </mxCell>
        <mxCell id="mjBgpRz0uOezvbLtq9Ir-20" value="작성일" style="rounded=0;whiteSpace=wrap;html=1;" vertex="1" parent="1">
          <mxGeometry x="220" y="50" width="110" height="50" as="geometry" />
        </mxCell>
        <mxCell id="mjBgpRz0uOezvbLtq9Ir-21" value="2024-07-05" style="rounded=0;whiteSpace=wrap;html=1;" vertex="1" parent="1">
          <mxGeometry x="330" y="50" width="110" height="50" as="geometry" />
        </mxCell>
        <mxCell id="mjBgpRz0uOezvbLtq9Ir-22" value="&lt;span style=&quot;font-size: 30px;&quot;&gt;화면의 동작을&lt;/span&gt;&lt;div&gt;&lt;span style=&quot;font-size: 30px;&quot;&gt;설명&lt;/span&gt;&lt;/div&gt;" style="rounded=0;whiteSpace=wrap;html=1;" vertex="1" parent="1">
          <mxGeometry x="550" y="120" width="240" height="530" as="geometry" />
        </mxCell>
      </root>
    </mxGraphModel>
  </diagram>
</mxfile>
